<svg xmlns="http://www.w3.org/2000/svg" width="250.937" height="168.298" viewBox="0 0 250.937 168.298"><defs><style>.a,.h{opacity:0.2;}.b{fill:#3f3d56;}.c,.f,.k{fill:#fff;}.d,.f,.m{opacity:0.1;}.e{fill:#3a3768;}.g{fill:#a8a8a8;}.i{fill:#e6e8ec;}.j,.k{opacity:0.3;}.l{fill:#fbbebe;}</style></defs><g transform="translate(0 0.122)"><g class="a" transform="translate(11.639 -0.122)"><path class="b" d="M180.394,720.731a10.886,10.886,0,0,0-.1,1.831q6.093.1,12.232.408c.028-.158.056-.322.079-.487a9.709,9.709,0,0,0-.571-5.063,5.36,5.36,0,0,0-9.66-1.4,9.725,9.725,0,0,0-1.98,4.707Z" transform="translate(-164.251 -567.99)"/><ellipse class="b" cx="8.074" cy="6.169" rx="8.074" ry="6.169" transform="translate(16.334 150.599) rotate(-81.951)"/><ellipse class="b" cx="8.076" cy="6.17" rx="8.076" ry="6.17" transform="matrix(0.142, -0.99, 0.99, 0.142, 17.806, 141.197)"/><ellipse class="b" cx="8.076" cy="6.17" rx="8.076" ry="6.17" transform="matrix(0.142, -0.99, 0.99, 0.142, 19.209, 131.428)"/><ellipse class="b" cx="8.076" cy="6.17" rx="8.076" ry="6.17" transform="matrix(0.142, -0.99, 0.99, 0.142, 20.613, 121.658)"/><path class="c" d="M171.787,139.744a29.688,29.688,0,0,0,2.754-3.029l-15.662-4.933,17.333,2.624a29.609,29.609,0,0,0,3.889-23.095l-25.017,8.74,23.738-12.7a29.551,29.551,0,1,0-53.011,25.781,29.723,29.723,0,0,0-4.1,4.856L140.978,151.8l-21.135-10.643a29.567,29.567,0,0,0,.769,28.144,29.549,29.549,0,1,0,45.977,6.605A29.551,29.551,0,0,0,171.787,139.744Z" transform="translate(-111.454 -88.778)"/><path class="d" d="M116.952,351.925a29.432,29.432,0,0,0,3.66,18.982,29.549,29.549,0,1,0,45.977,6.605C171.228,373.1,117.425,348.642,116.952,351.925Z" transform="translate(-111.454 -290.381)"/></g><path class="e" d="M61.5,567.4c0,22.922,14.381,41.473,32.153,41.473" transform="translate(-61.5 -456.005)"/><path class="c" d="M199.5,607.339c0-23.181,16.049-41.939,35.881-41.939" transform="translate(-167.347 -454.471)"/><path class="c" d="M111.5,576.32c0,21.773,9.171,39.395,20.5,39.395" transform="translate(-99.85 -462.847)"/><path class="e" d="M199.5,568.989c0-29.621,18.549-53.589,41.473-53.589" transform="translate(-167.347 -416.121)"/><ellipse class="f" cx="7.994" cy="1.351" rx="7.994" ry="1.351" transform="translate(22.764 158.09)"/><path class="g" d="M170.47,738.543s4.56-.14,5.934-1.118,7.013-2.146,7.353-.578,6.855,7.805,1.706,7.847-11.962-.8-13.334-1.631S170.47,738.543,170.47,738.543Z" transform="translate(-145.08 -585.383)"/><path class="h" d="M185.557,752.3c-5.149.04-11.962-.8-13.334-1.631-1.044-.636-1.461-2.919-1.6-3.961h-.151s.289,3.679,1.659,4.513,8.188,1.68,13.334,1.631c1.487,0,2-.541,1.971-1.323C187.227,752,186.67,752.293,185.557,752.3Z" transform="translate(-145.08 -593.536)"/><ellipse class="f" cx="119.061" cy="3.959" rx="119.061" ry="3.959" transform="translate(11.575 160.259)"/><rect class="e" width="2.309" height="19.043" rx="1.154" transform="translate(162.016 44.024)"/><rect class="e" width="1.295" height="6.27" rx="0.648" transform="translate(85.228 29.105)"/><rect class="e" width="1.461" height="10.914" rx="0.73" transform="translate(85.181 40.583)"/><rect class="e" width="1.391" height="11.007" rx="0.695" transform="translate(85.204 55.315)"/><rect class="e" width="77.301" height="157.102" rx="38.651" transform="translate(85.962 8.387)"/><rect class="i" width="10.795" height="2.192" rx="1.096" transform="translate(117.155 13.078)"/><circle class="i" cx="1.244" cy="1.244" r="1.244" transform="translate(129.581 12.931)"/><path class="i" d="M512.544,142.86H503.69v1.065a5.056,5.056,0,0,1-5.056,5.056H470.427a5.054,5.054,0,0,1-5.056-5.056V142.86h-8.3A6.139,6.139,0,0,0,450.93,149V285.638a6.139,6.139,0,0,0,6.139,6.139h55.474a6.137,6.137,0,0,0,6.137-6.139V149A6.137,6.137,0,0,0,512.544,142.86Z" transform="translate(-360.194 -130.381)"/><rect class="c" width="36.347" height="12.582" rx="3.88" transform="translate(106.579 30.091)"/><g class="j" transform="translate(101.512 115.368)"><rect class="c" width="46.599" height="4.194" rx="2.097"/><rect class="c" width="46.599" height="4.194" rx="2.097" transform="translate(0 6.524)"/><rect class="c" width="46.599" height="4.194" rx="2.097" transform="translate(0 13.048)"/><rect class="c" width="46.599" height="4.194" rx="2.097" transform="translate(0 19.572)"/><rect class="c" width="17.708" height="4.194" rx="2.097" transform="translate(0 26.096)"/></g><rect class="k" width="63.375" height="47.997" rx="5.71" transform="translate(93.124 55.022)"/><path class="l" d="M879.446,518.815c.07.932.331,2.036,1.212,2.358a2.253,2.253,0,0,0,1.3-.021,5.487,5.487,0,0,0,2.875-1.647,3.473,3.473,0,0,0,.79-3.136,10.772,10.772,0,0,0-1.71-2.7,19.864,19.864,0,0,1-1.377-3.353C878.77,510.681,879.236,516.014,879.446,518.815Z" transform="translate(-688.762 -412.224)"/><path class="b" d="M862.515,354c-.5,1.631,1.274,3.406,1.848,5.009a17.315,17.315,0,0,1,1.939,8.33,39.065,39.065,0,0,0,1.165,6.5q1.107,4.641,2.37,9.243a34.415,34.415,0,0,1,.986,4.247,16.327,16.327,0,0,1-.019,4.681,5.979,5.979,0,0,0-4.446.408,13.213,13.213,0,0,1-1.689-5.5,28.747,28.747,0,0,1,.033-3.441c.149-3.241-1.256-6.487-1.3-9.73a18.327,18.327,0,0,0-.266-3.355c-.154-.762-.14-2.188-.305-2.947-.263-1.207.869-1.764.806-3l-.345-6.757C863.217,356.509,862.029,355.058,862.515,354Z" transform="translate(-675.792 -292.326)"/><path class="d" d="M862.515,354c-.5,1.631,1.274,3.406,1.848,5.009a17.315,17.315,0,0,1,1.939,8.33,39.065,39.065,0,0,0,1.165,6.5q1.107,4.641,2.37,9.243a34.415,34.415,0,0,1,.986,4.247,16.327,16.327,0,0,1-.019,4.681,5.979,5.979,0,0,0-4.446.408,13.213,13.213,0,0,1-1.689-5.5,28.747,28.747,0,0,1,.033-3.441c.149-3.241-1.256-6.487-1.3-9.73a18.327,18.327,0,0,0-.266-3.355c-.154-.762-.14-2.188-.305-2.947-.263-1.207.869-1.764.806-3l-.345-6.757C863.217,356.509,862.029,355.058,862.515,354Z" transform="translate(-675.792 -292.326)"/><path class="l" d="M789.829,312.529a2.587,2.587,0,0,0,.534,1.076,59.866,59.866,0,0,0,8.024,9.087,4.271,4.271,0,0,0,.753-1.06,16.043,16.043,0,0,0,1.96-8.062c-1.349-.433-2.875-1.039-3.309-2.386-.34-1.062.119-2.33-.485-3.276-.853-1.333-4.483-1.505-5.65-.536-.762.634-.489,1.226-.732,2.083C790.656,310.39,789.68,311.53,789.829,312.529Z" transform="translate(-620.12 -256.091)"/><path class="d" d="M789.829,312.529a2.587,2.587,0,0,0,.534,1.076,59.866,59.866,0,0,0,8.024,9.087,4.271,4.271,0,0,0,.753-1.06,16.043,16.043,0,0,0,1.96-8.062c-1.349-.433-2.875-1.039-3.309-2.386-.34-1.062.119-2.33-.485-3.276-.853-1.333-4.483-1.505-5.65-.536-.762.634-.489,1.226-.732,2.083C790.656,310.39,789.68,311.53,789.829,312.529Z" transform="translate(-620.12 -256.091)"/><path class="b" d="M792.868,776.841a3.112,3.112,0,0,0,1.277.536,42.776,42.776,0,0,0,13.56,1.116c.606-.047,1.417-.373,1.268-.962s-.932-.517-1.468-.683a3.3,3.3,0,0,1-1.26-.932,27.618,27.618,0,0,0-4.758-3.514,3.272,3.272,0,0,0-3.1-.557c-1.468.277-4.269.233-5.429,1.319A2.724,2.724,0,0,0,792.868,776.841Z" transform="translate(-621.947 -612.7)"/><path class="b" d="M867.324,763.838a1.265,1.265,0,0,0,.317,1,1.165,1.165,0,0,0,.753.2,5.247,5.247,0,0,0,4.6-2.8l6.524-.762a9.125,9.125,0,0,0,7.074-3.518,1.367,1.367,0,0,0,.4-.578.921.921,0,0,0-.6-1.007,2.4,2.4,0,0,0-1.26-.068c-3.185.438-6.382,1.864-9.5,1.07a7.459,7.459,0,0,0-2.3-.466,4.783,4.783,0,0,0-1.233.331c-1.014.373-4.042.9-4.714,1.759S867.324,762.813,867.324,763.838Z" transform="translate(-679.378 -600.86)"/><path class="e" d="M774.623,466.23c-.932,1.454-2.894,1.768-4.266,2.81-2.1,1.6-2.467,4.583-2.586,7.223a20.43,20.43,0,0,0,.273,5.466c.282,1.244.781,2.426,1.165,3.646a32.752,32.752,0,0,1,1.165,8.208c.322,6.99.037,14.022.932,20.97.256,1.985.61,3.961.8,5.953.643,6.6-.445,13.4,1.321,19.791a10.284,10.284,0,0,1,7.4-3.313,4.262,4.262,0,0,0,1.729-.2,1.177,1.177,0,0,0,.736-1.4,4.432,4.432,0,0,0-.466-.659c-.769-1.165.541-2.815-.021-4.1-.214-.492-.685-.857-.82-1.379a4.54,4.54,0,0,1,.217-1.719c.156-1.165-.513-2.248-.86-3.367a13.189,13.189,0,0,1-.133-5.263A149.555,149.555,0,0,0,782,501.5c-.051-3.931-.247-7.945.885-11.71a29.8,29.8,0,0,1,5.387,6.817,14.89,14.89,0,0,1,1.985,4.949,18.54,18.54,0,0,1,.133,3.924l-.671,20.108c-.137,4.052-.254,8.225,1.153,12.03,3.57-1.9,7.223-3.728,10.795-5.641-.061-1.319-1.829-1.8-2.484-2.945a3.66,3.66,0,0,1-.371-1.536c-.454-5.447.659-10.89,1.687-16.258a33.053,33.053,0,0,0,.771-6.188,32.359,32.359,0,0,0-1.966-9.669c-1.058-3.336-2.164-6.657-3.262-9.977-.711-2.132-1.421-4.266-2.309-6.331-.841-1.95-1.838-3.837-2.563-5.837a44.561,44.561,0,0,1-1.927-10.019C784.39,464.187,779.465,465.266,774.623,466.23Z" transform="translate(-603.168 -376.098)"/><circle class="l" cx="6.808" cy="6.808" r="6.808" transform="translate(167.089 40.566)"/><path class="c" d="M792.474,332.239l-.494-3.691a2.979,2.979,0,0,0-.326-1.179,3.03,3.03,0,0,0-.853-.816l-4.744-3.465c-.233-.177-.555-.363-.823-.233a.782.782,0,0,0-.331.482c-.748,2.216-.287,4.627-.023,6.95.219,1.936.294,3.886.368,5.825a43.464,43.464,0,0,1,0,5.284c-.259,3.048-1.165,6.116-.557,9.112a50.747,50.747,0,0,1,1.272,5.844,17.312,17.312,0,0,0,.52,4.145,11.687,11.687,0,0,1,5.252-.529l4.3.233a7.824,7.824,0,0,0,1.794-.042,6.025,6.025,0,0,0,1.878-.736A12.882,12.882,0,0,0,803.637,356c-.727-3.511-.023-7.137-.506-10.69-.28-2.048-.972-4.019-1.3-6.058-.4-2.516-.233-5.126-.967-7.57a21.8,21.8,0,0,0-1.545-3.581,6.626,6.626,0,0,0-2.964-3.017,1.608,1.608,0,0,0-.776-.2c-.687.037-1.111.764-1.3,1.426-.233.795-.3,1.631-.48,2.425A10.671,10.671,0,0,1,792.474,332.239Z" transform="translate(-616.033 -268.405)"/><path class="b" d="M738.162,377.952c.909.958,2.563.722,3.616-.068,2.295-1.715,2.507-5,2.633-7.864a6.928,6.928,0,0,1,.6-3c.739-1.4,2.262-2.12,3.53-3.048a14.221,14.221,0,0,0,5.3-9.5,26.836,26.836,0,0,0-1.093-11.037c-1.757-6.191-4.716-11.962-7.719-17.652a1.286,1.286,0,0,0-.419-.534c-.61-.38-1.272.368-1.689.953-1.414,1.983-3.744,3.043-5.878,4.215s-4.317,2.733-4.963,5.079a10.447,10.447,0,0,0,.233,4.842c.329,1.6,1.477,2.864,2.346,4.208a41.086,41.086,0,0,1,2.721,4.634,8.743,8.743,0,0,1,.7,1.88,11.22,11.22,0,0,1,.184,2.33,109.807,109.807,0,0,1-.485,14.467,39.2,39.2,0,0,0-.617,8.155A3.356,3.356,0,0,0,738.162,377.952Z" transform="translate(-575.676 -270.196)"/><path class="l" d="M774.806,495.961a12.332,12.332,0,0,0,3,1.055,3.918,3.918,0,0,0,3.029-.615,2.4,2.4,0,0,0,.794-2.833,14.351,14.351,0,0,0,2.237-.1c.424-.056.932-.219,1.007-.641.077-.5-.522-.792-1-.932l-2.6-.718a9.361,9.361,0,0,0-2.349-.433,9.467,9.467,0,0,0-1.475.147l-3.942.613a.723.723,0,0,0-.3.093.7.7,0,0,0-.233.391c-.191.606-1.074,2.293-.771,2.891C772.453,495.381,774.263,495.694,774.806,495.961Z" transform="translate(-606.564 -397.207)"/><path class="b" d="M846.224,378.695a4.028,4.028,0,0,1-2.53,2.216,1.384,1.384,0,0,1-.753.049c-.466-.128-.722-.615-.916-1.058-4.616-10.506-4.357-22.461-7.29-33.551-.871-3.292-2.036-6.6-1.827-10a2.031,2.031,0,0,1,.673-1.631,1.652,1.652,0,0,1,1.563,0c.5.221.92.582,1.4.829.771.394,1.668.506,2.409.951a6.113,6.113,0,0,1,2.153,3.1,22.652,22.652,0,0,1,2.181,7.866c.177,5.322-2.183,10.436-.953,15.611a31,31,0,0,0,.951,3.015A91.693,91.693,0,0,1,846.313,377,2.5,2.5,0,0,1,846.224,378.695Z" transform="translate(-653.154 -277.386)"/><path class="e" d="M777.1,258.21a8.989,8.989,0,0,0,1.193-1.985c.156-.527.123-1.1.31-1.619.466-1.277,2.085-1.747,3.423-1.526a39.979,39.979,0,0,1,3.854,1.288c.725.2,1.733.137,1.938-.585a1.635,1.635,0,0,0-.5-1.351l-3.858-4.942a2.121,2.121,0,0,1-1.538,0c-.268-.144-.466-.405-.764-.487-.8-.233-1.477,1-2.283.788-.233-.061-.417-.233-.65-.252-.65-.054-.895,1.023-1.545,1.076-.27.023-.529-.149-.8-.123a1.023,1.023,0,0,0-.6.375,7.238,7.238,0,0,0-1.747,5.226c.07,1.885-.254,3.707.466,5.447.319.757.96,1.652,1.743,1.4,0-1.025.955-2.048.967-3.071" transform="translate(-607.622 -210.237)"/><g class="m" transform="translate(169.458 110.668)"><path d="M801.978,570.506a29.592,29.592,0,0,0-5.028-6.226c-1.132,3.765-.932,7.78-.885,11.71a149.543,149.543,0,0,1-.792,17.4,13.192,13.192,0,0,0,.133,5.263c.347,1.118,1.016,2.206.86,3.367a4.564,4.564,0,0,0-.217,1.72c.135.522.606.888.82,1.379.562,1.284-.748,2.926.021,4.1a4.44,4.44,0,0,1,.466.659,1.164,1.164,0,0,1-.736,1.4,4.386,4.386,0,0,1-1.729.2,10.3,10.3,0,0,0-6.091,2.123,27.5,27.5,0,0,0,.794,4.217A10.285,10.285,0,0,1,797,614.5a4.262,4.262,0,0,0,1.729-.2,1.177,1.177,0,0,0,.736-1.4,4.445,4.445,0,0,0-.466-.659c-.769-1.165.541-2.815-.021-4.1-.214-.492-.685-.857-.82-1.379a4.541,4.541,0,0,1,.217-1.72c.156-1.165-.513-2.248-.86-3.367a13.187,13.187,0,0,1-.133-5.263,149.569,149.569,0,0,0,.792-17.4c-.051-3.931-.247-7.945.885-11.71a28.779,28.779,0,0,1,2.917,3.2Z" transform="translate(-788.8 -564.28)"/></g><g class="m" transform="translate(165.9 41.859)"><path d="M773.568,275.295v-.965a7.313,7.313,0,0,0,0,.748C773.566,275.15,773.568,275.222,773.568,275.295Z" transform="translate(-773.551 -273.078)"/><path d="M785.889,270.3a38.526,38.526,0,0,0-3.854-1.288c-1.34-.219-2.961.249-3.423,1.526-.186.517-.154,1.093-.31,1.619a8.986,8.986,0,0,1-1.193,1.985l-.384-.34c0,1.023-.955,2.046-.967,3.071-.783.254-1.424-.641-1.743-1.4a7.042,7.042,0,0,1-.482-2.624,8.541,8.541,0,0,0,.482,3.556c.319.76.96,1.654,1.743,1.4,0-1.025.955-2.048.967-3.071l.384.34a8.987,8.987,0,0,0,1.193-1.985c.156-.527.123-1.1.31-1.619.466-1.277,2.085-1.747,3.423-1.526a39.976,39.976,0,0,1,3.854,1.288c.725.2,1.734.137,1.939-.585a1.03,1.03,0,0,0-.093-.727C787.41,270.445,786.539,270.475,785.889,270.3Z" transform="translate(-773.528 -268.957)"/></g><path class="b" d="M722.917,368.183a34.431,34.431,0,0,1-.857,4.224l-1.631,6.647a6.239,6.239,0,0,0-.273,2.16,5.949,5.949,0,0,0,1.223,2.647,52.8,52.8,0,0,0,11.54,11.985c-.259-1.326.662-2.563,1.529-3.607a11.566,11.566,0,0,1,2.836-2.719q-4.236-4-8.206-8.26a4.311,4.311,0,0,1-.713-.92c-.638-1.233,0-2.705.557-3.98,1.754-4.052,2.582-8.649,1.456-12.92a7.383,7.383,0,0,0-2.514-4.194,2.052,2.052,0,0,0-2.041-.4,2.266,2.266,0,0,0-.7.627C723.034,362.02,723.283,365.084,722.917,368.183Z" transform="translate(-566.677 -295.941)"/><g class="a" transform="translate(185.267 12.581)"><path class="b" d="M1022.647,695.005a10.058,10.058,0,0,0,.408,1.549q4.97-1.6,10.035-3.029c-.021-.14-.04-.284-.065-.429a8.555,8.555,0,0,0-1.815-4.045,4.876,4.876,0,0,0-4.574-1.953,5.006,5.006,0,0,0-3.637,3.458A8.72,8.72,0,0,0,1022.647,695.005Z" transform="translate(-983.863 -560.345)"/><ellipse class="b" cx="5.275" cy="7.057" rx="5.275" ry="7.057" transform="translate(36.205 119.043) rotate(-8.99)"/><ellipse class="b" cx="5.275" cy="7.057" rx="5.275" ry="7.057" transform="translate(34.736 110.546) rotate(-8.99)"/><ellipse class="b" cx="5.275" cy="7.057" rx="5.275" ry="7.057" transform="translate(33.268 102.047) rotate(-8.99)"/><ellipse class="b" cx="5.275" cy="7.057" rx="5.275" ry="7.057" transform="translate(31.8 93.55) rotate(-8.99)"/><path class="c" d="M904.139,181.281a26.205,26.205,0,0,0,1.431-3.262l-14.029.219,14.763-2.6a26.342,26.342,0,0,0,.438-11.058,26.042,26.042,0,0,0-3.444-9.187l-17.966,14.145L901.2,152.45a24.838,24.838,0,0,0-23.705-8.737c-13.723,2.528-22.885,15.967-20.459,30.017a25.812,25.812,0,0,0,8.034,14.751,26.417,26.417,0,0,0-2.032,5.161l19.32,6.146-19.989-3.008a26.446,26.446,0,0,0,.1,8.4,25.812,25.812,0,0,0,8.034,14.751,26.315,26.315,0,0,0-2.6,16.708,25.207,25.207,0,0,0,29.243,20.867c13.726-2.526,22.885-15.967,20.459-30.017a25.812,25.812,0,0,0-8.034-14.751,26.314,26.314,0,0,0,2.614-16.708,25.79,25.79,0,0,0-8.045-14.751Z" transform="translate(-856.649 -143.3)"/><path class="d" d="M881.618,406.3a25.812,25.812,0,0,0,8.034,14.751,26.314,26.314,0,0,0-2.6,16.708,25.207,25.207,0,0,0,29.243,20.867c13.726-2.526,22.885-15.967,20.459-30.017a25.812,25.812,0,0,0-8.034-14.751C931.3,408.919,881.127,403.448,881.618,406.3Z" transform="translate(-875.798 -344.421)"/></g><path class="e" d="M970.5,637.9c0,12.188,7.645,22.051,17.095,22.051" transform="translate(-758.707 -510.079)"/><path class="c" d="M1043.87,659.138c0-12.326,8.532-22.3,19.075-22.3" transform="translate(-814.982 -509.266)"/><path class="c" d="M997.08,642.65c0,11.575,4.877,20.944,10.9,20.944" transform="translate(-779.094 -513.722)"/><path class="e" d="M1043.87,638.751c0-15.748,9.86-28.491,22.048-28.491" transform="translate(-814.982 -488.879)"/><ellipse class="f" cx="4.352" cy="0.736" rx="4.352" ry="0.736" transform="translate(222.56 151.526)"/><path class="g" d="M1022.85,723.715s2.481-.077,3.229-.61,3.819-1.165,4.005-.315,3.728,4.25.932,4.273-6.524-.438-7.258-.892S1022.85,723.715,1022.85,723.715Z" transform="translate(-798.859 -574.871)"/><path class="h" d="M1031.061,731.165c-2.8.023-6.51-.436-7.258-.892-.568-.345-.794-1.589-.871-2.162h-.082s.156,2,.9,2.456,4.455.913,7.258.892c.809,0,1.088-.3,1.072-.722C1031.972,731,1031.664,731.16,1031.061,731.165Z" transform="translate(-798.859 -579.27)"/></g></svg>